<?xml version="1.0" encoding="iso-8859-1"?>
<!-- Uploaded to: SVG Repo, www.svgrepo.com, Generator: SVG Repo Mixer Tools -->
<svg version="1.1" id="Layer_1" xmlns="http://www.w3.org/2000/svg" xmlns:xlink="http://www.w3.org/1999/xlink" 
	 viewBox="0 0 512 512" xml:space="preserve">
<path d="M355,512H157c-35.2,0-64-28.8-64-64V64c0-35.2,28.8-64,64-64h198c35.2,0,64,28.8,64,64v384C419,483.2,390.2,512,355,512z"/>
<rect x="118" y="60.416" style="fill:#FFFFFF;" width="280" height="376.96"/>
<path style="fill:#FFD67F;" d="M370.792,205.216l-30.136-24.32l19.368-33.616l-40.896-3.576l-3.584-39.336l-34.44,16.448
	l-23.68-30.752l-22.24,31.472l-35.872-18.592l-2.152,40.768l-40.176,2.144l15.064,38.624L141.2,203.072l31.568,23.6l-15.784,33.616
	l39.464,4.288l2.152,40.056l36.592-17.168l24.392,32.184l21.52-32.184l33.72,16.448l2.872-40.056l39.464-0.712l-14.352-32.904
	L370.792,205.216z"/>
<path style="fill:#FF583E;" d="M251.344,235.704v-27.872c-8.696-2.488-15.064-6.24-19.128-11.272
	c-4.056-5.032-6.088-11.144-6.088-18.328c0-7.272,2.296-13.384,6.888-18.328s10.696-7.792,18.328-8.552v-6.584h9.648v6.584
	c7.048,0.84,12.664,3.248,16.832,7.216s6.832,9.28,7.984,15.936l-16.832,2.2c-1.024-5.232-3.68-8.784-7.984-10.648v26.016
	c10.64,2.888,17.896,6.616,21.752,11.208c3.856,4.584,5.792,10.48,5.792,17.664c0,8.024-2.432,14.792-7.288,20.296
	c-4.856,5.496-11.608,8.872-20.256,10.112v12.44h-9.648V251.68c-7.672-0.928-13.904-3.792-18.696-8.584
	c-4.792-4.784-7.856-11.552-9.184-20.288l17.368-1.864c0.712,3.552,2.04,6.608,3.992,9.184
	C246.776,232.688,248.944,234.552,251.344,235.704z M251.344,165.856c-2.616,0.888-4.704,2.392-6.256,4.528
	c-1.552,2.128-2.328,4.48-2.328,7.048c0,2.352,0.712,4.536,2.128,6.552c1.424,2.016,3.568,3.648,6.456,4.888V165.856z
	 M260.992,236.64c3.32-0.624,6.032-2.16,8.112-4.624c2.088-2.456,3.128-5.352,3.128-8.68c0-2.968-0.88-5.528-2.624-7.68
	c-1.752-2.152-4.624-3.8-8.616-4.96V236.64z"/>
<g>
	<circle style="fill:#CCCCCC;" cx="256" cy="30.176" r="12"/>
	<path style="fill:#CCCCCC;" d="M283.128,488.272h-54.264c-7.496,0-13.568-6.064-13.568-13.568c0-7.496,6.064-13.568,13.568-13.568
		h54.264c7.496,0,13.568,6.064,13.568,13.568C296.696,482.208,290.632,488.272,283.128,488.272z"/>
</g>
<g>
	<rect x="151.216" y="350.296" style="fill:#FF583E;" width="209.6" height="8"/>
	<rect x="174.472" y="377.2" style="fill:#FF583E;" width="163.064" height="8"/>
</g>
</svg>